<svg width="1024" height="753" viewBox="0 0 1024 753" fill="none" xmlns="http://www.w3.org/2000/svg">
<g clip-path="url(#clip0_122_130)">
<rect width="1024" height="753" fill="#121214"/>
<g opacity="0.2" filter="url(#filter0_f_122_130)">
<ellipse cx="511.5" cy="29" rx="670.5" ry="350" fill="#338AF3"/>
</g>
<path d="M32.0349 265C33.5302 265 34.6622 265.63 35.4308 266.891C36.2134 268.138 36.6047 269.953 36.6047 272.336C36.6047 274.719 36.2134 276.541 35.4308 277.802C34.6622 279.063 33.5302 279.693 32.0349 279.693C30.5536 279.693 29.4216 279.063 28.639 277.802C27.8564 276.541 27.4651 274.719 27.4651 272.336C27.4651 269.967 27.8564 268.152 28.639 266.891C29.4216 265.63 30.5536 265 32.0349 265ZM28.9534 272.336C28.9534 274.026 29.1072 275.35 29.4146 276.306L34.0683 267.099C33.5791 266.448 32.9013 266.122 32.0349 266.122C31.0706 266.122 30.316 266.635 29.771 267.66C29.2259 268.672 28.9534 270.23 28.9534 272.336ZM32.0349 278.55C33.0131 278.55 33.7748 278.044 34.3198 277.033C34.8648 276.008 35.1373 274.442 35.1373 272.336C35.1373 270.549 34.9627 269.163 34.6133 268.18L29.9596 277.469C30.4627 278.19 31.1545 278.55 32.0349 278.55Z" fill="url(#paint0_linear_122_130)" fill-opacity="0.6"/>
<path d="M33.2926 302.135H36.3741V303.236H28.3874V302.135H31.9511V290.455L28.5551 292.471L27.9682 291.536L32.1607 288.959H33.2926V302.135Z" fill="url(#paint1_linear_122_130)" fill-opacity="0.6"/>
<path d="M32.0349 312.502C33.5302 312.502 34.6622 313.133 35.4308 314.393C36.2134 315.64 36.6047 317.455 36.6047 319.838C36.6047 322.221 36.2134 324.043 35.4308 325.304C34.6622 326.565 33.5302 327.195 32.0349 327.195C30.5536 327.195 29.4216 326.565 28.639 325.304C27.8564 324.043 27.4651 322.221 27.4651 319.838C27.4651 317.469 27.8564 315.654 28.639 314.393C29.4216 313.133 30.5536 312.502 32.0349 312.502ZM28.9534 319.838C28.9534 321.529 29.1072 322.852 29.4146 323.808L34.0683 314.601C33.5791 313.95 32.9013 313.624 32.0349 313.624C31.0706 313.624 30.316 314.137 29.771 315.162C29.2259 316.174 28.9534 317.732 28.9534 319.838ZM32.0349 326.052C33.0131 326.052 33.7748 325.546 34.3198 324.535C34.8648 323.51 35.1373 321.944 35.1373 319.838C35.1373 318.051 34.9627 316.665 34.6133 315.682L29.9596 324.971C30.4627 325.692 31.1545 326.052 32.0349 326.052Z" fill="url(#paint2_linear_122_130)" fill-opacity="0.6"/>
<path d="M33.2926 349.637H36.3741V350.738H28.3874V349.637H31.9511V337.957L28.5551 339.973L27.9682 339.038L32.1607 336.461H33.2926V349.637Z" fill="url(#paint3_linear_122_130)" fill-opacity="0.6"/>
<path d="M33.2926 373.388H36.3741V374.489H28.3874V373.388H31.9511V361.708L28.5551 363.724L27.9682 362.789L32.1607 360.212H33.2926V373.388Z" fill="url(#paint4_linear_122_130)" fill-opacity="0.6"/>
<path d="M32.0349 383.755C33.5302 383.755 34.6622 384.386 35.4308 385.646C36.2134 386.893 36.6047 388.708 36.6047 391.091C36.6047 393.474 36.2134 395.296 35.4308 396.557C34.6622 397.818 33.5302 398.448 32.0349 398.448C30.5536 398.448 29.4216 397.818 28.639 396.557C27.8564 395.296 27.4651 393.474 27.4651 391.091C27.4651 388.722 27.8564 386.907 28.639 385.646C29.4216 384.386 30.5536 383.755 32.0349 383.755ZM28.9534 391.091C28.9534 392.782 29.1072 394.105 29.4146 395.061L34.0683 385.854C33.5791 385.203 32.9013 384.878 32.0349 384.878C31.0706 384.878 30.316 385.39 29.771 386.415C29.2259 387.427 28.9534 388.985 28.9534 391.091ZM32.0349 397.305C33.0131 397.305 33.7748 396.8 34.3198 395.788C34.8648 394.763 35.1373 393.197 35.1373 391.091C35.1373 389.304 34.9627 387.919 34.6133 386.935L29.9596 396.225C30.4627 396.945 31.1545 397.305 32.0349 397.305Z" fill="url(#paint5_linear_122_130)" fill-opacity="0.6"/>
<path d="M33.2926 420.89H36.3741V421.992H28.3874V420.89H31.9511V409.21L28.5551 411.226L27.9682 410.291L32.1607 407.714H33.2926V420.89Z" fill="url(#paint6_linear_122_130)" fill-opacity="0.6"/>
<path d="M32.0349 431.257C33.5302 431.257 34.6622 431.888 35.4308 433.149C36.2134 434.396 36.6047 436.211 36.6047 438.594C36.6047 440.977 36.2134 442.798 35.4308 444.059C34.6622 445.32 33.5302 445.95 32.0349 445.95C30.5536 445.95 29.4216 445.32 28.639 444.059C27.8564 442.798 27.4651 440.977 27.4651 438.594C27.4651 436.224 27.8564 434.409 28.639 433.149C29.4216 431.888 30.5536 431.257 32.0349 431.257ZM28.9534 438.594C28.9534 440.284 29.1072 441.607 29.4146 442.563L34.0683 433.356C33.5791 432.705 32.9013 432.38 32.0349 432.38C31.0706 432.38 30.316 432.892 29.771 433.918C29.2259 434.929 28.9534 436.488 28.9534 438.594ZM32.0349 444.807C33.0131 444.807 33.7748 444.302 34.3198 443.29C34.8648 442.265 35.1373 440.699 35.1373 438.594C35.1373 436.806 34.9627 435.421 34.6133 434.437L29.9596 443.727C30.4627 444.447 31.1545 444.807 32.0349 444.807Z" fill="url(#paint7_linear_122_130)" fill-opacity="0.6"/>
<path d="M32.0349 455.008C33.5302 455.008 34.6622 455.639 35.4308 456.9C36.2134 458.147 36.6047 459.962 36.6047 462.345C36.6047 464.728 36.2134 466.549 35.4308 467.81C34.6622 469.071 33.5302 469.701 32.0349 469.701C30.5536 469.701 29.4216 469.071 28.639 467.81C27.8564 466.549 27.4651 464.728 27.4651 462.345C27.4651 459.975 27.8564 458.16 28.639 456.9C29.4216 455.639 30.5536 455.008 32.0349 455.008ZM28.9534 462.345C28.9534 464.035 29.1072 465.358 29.4146 466.314L34.0683 457.107C33.5791 456.456 32.9013 456.131 32.0349 456.131C31.0706 456.131 30.316 456.643 29.771 457.669C29.2259 458.68 28.9534 460.239 28.9534 462.345ZM32.0349 468.558C33.0131 468.558 33.7748 468.053 34.3198 467.041C34.8648 466.016 35.1373 464.451 35.1373 462.345C35.1373 460.557 34.9627 459.172 34.6133 458.188L29.9596 467.478C30.4627 468.198 31.1545 468.558 32.0349 468.558Z" fill="url(#paint8_linear_122_130)" fill-opacity="0.6"/>
<path d="M33.2926 492.143H36.3741V493.245H28.3874V492.143H31.9511V480.464L28.5551 482.48L27.9682 481.544L32.1607 478.967H33.2926V492.143Z" fill="url(#paint9_linear_122_130)" fill-opacity="0.6"/>
<path d="M32.0349 502.511C33.5302 502.511 34.6622 503.141 35.4308 504.402C36.2134 505.649 36.6047 507.464 36.6047 509.847C36.6047 512.23 36.2134 514.052 35.4308 515.312C34.6622 516.573 33.5302 517.204 32.0349 517.204C30.5536 517.204 29.4216 516.573 28.639 515.312C27.8564 514.052 27.4651 512.23 27.4651 509.847C27.4651 507.478 27.8564 505.663 28.639 504.402C29.4216 503.141 30.5536 502.511 32.0349 502.511ZM28.9534 509.847C28.9534 511.537 29.1072 512.86 29.4146 513.816L34.0683 504.61C33.5791 503.958 32.9013 503.633 32.0349 503.633C31.0706 503.633 30.316 504.145 29.771 505.171C29.2259 506.182 28.9534 507.741 28.9534 509.847ZM32.0349 516.061C33.0131 516.061 33.7748 515.555 34.3198 514.543C34.8648 513.518 35.1373 511.953 35.1373 509.847C35.1373 508.059 34.9627 506.674 34.6133 505.69L29.9596 514.98C30.4627 515.7 31.1545 516.061 32.0349 516.061Z" fill="url(#paint10_linear_122_130)" fill-opacity="0.6"/>
<path d="M33.2926 539.645H36.3741V540.747H28.3874V539.645H31.9511V527.966L28.5551 529.982L27.9682 529.046L32.1607 526.469H33.2926V539.645Z" fill="url(#paint11_linear_122_130)" fill-opacity="0.6"/>
<path d="M33.2926 563.396H36.3741V564.498H28.3874V563.396H31.9511V551.717L28.5551 553.733L27.9682 552.798L32.1607 550.221H33.2926V563.396Z" fill="url(#paint12_linear_122_130)" fill-opacity="0.6"/>
<path d="M70.9651 312.502C72.4604 312.502 73.5924 313.133 74.361 314.393C75.1436 315.64 75.5349 317.455 75.5349 319.838C75.5349 322.221 75.1436 324.043 74.361 325.304C73.5924 326.565 72.4604 327.195 70.9651 327.195C69.4838 327.195 68.3518 326.565 67.5692 325.304C66.7866 324.043 66.3953 322.221 66.3953 319.838C66.3953 317.469 66.7866 315.654 67.5692 314.393C68.3518 313.133 69.4838 312.502 70.9651 312.502ZM67.8836 319.838C67.8836 321.529 68.0374 322.852 68.3448 323.808L72.9985 314.601C72.5093 313.95 71.8315 313.624 70.9651 313.624C70.0008 313.624 69.2462 314.137 68.7012 315.162C68.1561 316.174 67.8836 317.732 67.8836 319.838ZM70.9651 326.052C71.9433 326.052 72.705 325.546 73.25 324.535C73.795 323.51 74.0675 321.944 74.0675 319.838C74.0675 318.051 73.8928 316.665 73.5435 315.682L68.8898 324.971C69.3929 325.692 70.0847 326.052 70.9651 326.052Z" fill="url(#paint13_linear_122_130)" fill-opacity="0.6"/>
<path d="M72.2228 349.637H75.3043V350.738H67.3176V349.637H70.8812V337.957L67.4853 339.973L66.8984 339.038L71.0909 336.461H72.2228V349.637Z" fill="url(#paint14_linear_122_130)" fill-opacity="0.6"/>
<path d="M70.9651 360.004C72.4604 360.004 73.5924 360.635 74.361 361.895C75.1436 363.142 75.5349 364.957 75.5349 367.34C75.5349 369.723 75.1436 371.545 74.361 372.806C73.5924 374.067 72.4604 374.697 70.9651 374.697C69.4838 374.697 68.3518 374.067 67.5692 372.806C66.7866 371.545 66.3953 369.723 66.3953 367.34C66.3953 364.971 66.7866 363.156 67.5692 361.895C68.3518 360.635 69.4838 360.004 70.9651 360.004ZM67.8836 367.34C67.8836 369.031 68.0374 370.354 68.3448 371.31L72.9985 362.103C72.5093 361.452 71.8315 361.126 70.9651 361.126C70.0008 361.126 69.2462 361.639 68.7012 362.664C68.1561 363.676 67.8836 365.234 67.8836 367.34ZM70.9651 373.554C71.9433 373.554 72.705 373.049 73.25 372.037C73.795 371.012 74.0675 369.446 74.0675 367.34C74.0675 365.553 73.8928 364.168 73.5435 363.184L68.8898 372.474C69.3929 373.194 70.0847 373.554 70.9651 373.554Z" fill="url(#paint15_linear_122_130)" fill-opacity="0.6"/>
<path d="M70.9651 383.755C72.4604 383.755 73.5924 384.386 74.361 385.646C75.1436 386.893 75.5349 388.708 75.5349 391.091C75.5349 393.474 75.1436 395.296 74.361 396.557C73.5924 397.818 72.4604 398.448 70.9651 398.448C69.4838 398.448 68.3518 397.818 67.5692 396.557C66.7866 395.296 66.3953 393.474 66.3953 391.091C66.3953 388.722 66.7866 386.907 67.5692 385.646C68.3518 384.386 69.4838 383.755 70.9651 383.755ZM67.8836 391.091C67.8836 392.782 68.0374 394.105 68.3448 395.061L72.9985 385.854C72.5093 385.203 71.8315 384.878 70.9651 384.878C70.0008 384.878 69.2462 385.39 68.7012 386.415C68.1561 387.427 67.8836 388.985 67.8836 391.091ZM70.9651 397.305C71.9433 397.305 72.705 396.8 73.25 395.788C73.795 394.763 74.0675 393.197 74.0675 391.091C74.0675 389.304 73.8928 387.919 73.5435 386.935L68.8898 396.225C69.3929 396.945 70.0847 397.305 70.9651 397.305Z" fill="url(#paint16_linear_122_130)" fill-opacity="0.6"/>
<path d="M72.2228 420.89H75.3043V421.992H67.3176V420.89H70.8812V409.21L67.4853 411.226L66.8984 410.291L71.0909 407.714H72.2228V420.89Z" fill="url(#paint17_linear_122_130)" fill-opacity="0.6"/>
<path d="M70.9651 431.257C72.4604 431.257 73.5924 431.888 74.361 433.149C75.1436 434.396 75.5349 436.211 75.5349 438.594C75.5349 440.977 75.1436 442.798 74.361 444.059C73.5924 445.32 72.4604 445.95 70.9651 445.95C69.4838 445.95 68.3518 445.32 67.5692 444.059C66.7866 442.798 66.3953 440.977 66.3953 438.594C66.3953 436.224 66.7866 434.409 67.5692 433.149C68.3518 431.888 69.4838 431.257 70.9651 431.257ZM67.8836 438.594C67.8836 440.284 68.0374 441.607 68.3448 442.563L72.9985 433.356C72.5093 432.705 71.8315 432.38 70.9651 432.38C70.0008 432.38 69.2462 432.892 68.7012 433.918C68.1561 434.929 67.8836 436.488 67.8836 438.594ZM70.9651 444.807C71.9433 444.807 72.705 444.302 73.25 443.29C73.795 442.265 74.0675 440.699 74.0675 438.594C74.0675 436.806 73.8928 435.421 73.5435 434.437L68.8898 443.727C69.3929 444.447 70.0847 444.807 70.9651 444.807Z" fill="url(#paint18_linear_122_130)" fill-opacity="0.6"/>
<path d="M72.2228 468.392H75.3043V469.494H67.3176V468.392H70.8812V456.713L67.4853 458.728L66.8984 457.793L71.0909 455.216H72.2228V468.392Z" fill="url(#paint19_linear_122_130)" fill-opacity="0.6"/>
<path d="M70.9651 478.76C72.4604 478.76 73.5924 479.39 74.361 480.651C75.1436 481.898 75.5349 483.713 75.5349 486.096C75.5349 488.479 75.1436 490.301 74.361 491.561C73.5924 492.822 72.4604 493.453 70.9651 493.453C69.4838 493.453 68.3518 492.822 67.5692 491.561C66.7866 490.301 66.3953 488.479 66.3953 486.096C66.3953 483.726 66.7866 481.911 67.5692 480.651C68.3518 479.39 69.4838 478.76 70.9651 478.76ZM67.8836 486.096C67.8836 487.786 68.0374 489.109 68.3448 490.065L72.9985 480.859C72.5093 480.207 71.8315 479.882 70.9651 479.882C70.0008 479.882 69.2462 480.394 68.7012 481.42C68.1561 482.431 67.8836 483.99 67.8836 486.096ZM70.9651 492.31C71.9433 492.31 72.705 491.804 73.25 490.792C73.795 489.767 74.0675 488.202 74.0675 486.096C74.0675 484.308 73.8928 482.923 73.5435 481.939L68.8898 491.229C69.3929 491.949 70.0847 492.31 70.9651 492.31Z" fill="url(#paint20_linear_122_130)" fill-opacity="0.6"/>
<path d="M70.9651 502.511C72.4604 502.511 73.5924 503.141 74.361 504.402C75.1436 505.649 75.5349 507.464 75.5349 509.847C75.5349 512.23 75.1436 514.052 74.361 515.312C73.5924 516.573 72.4604 517.204 70.9651 517.204C69.4838 517.204 68.3518 516.573 67.5692 515.312C66.7866 514.052 66.3953 512.23 66.3953 509.847C66.3953 507.478 66.7866 505.663 67.5692 504.402C68.3518 503.141 69.4838 502.511 70.9651 502.511ZM67.8836 509.847C67.8836 511.537 68.0374 512.86 68.3448 513.816L72.9985 504.61C72.5093 503.958 71.8315 503.633 70.9651 503.633C70.0008 503.633 69.2462 504.145 68.7012 505.171C68.1561 506.182 67.8836 507.741 67.8836 509.847ZM70.9651 516.061C71.9433 516.061 72.705 515.555 73.25 514.543C73.795 513.518 74.0675 511.953 74.0675 509.847C74.0675 508.059 73.8928 506.674 73.5435 505.69L68.8898 514.98C69.3929 515.7 70.0847 516.061 70.9651 516.061Z" fill="url(#paint21_linear_122_130)" fill-opacity="0.6"/>
<path d="M72.2228 539.645H75.3043V540.747H67.3176V539.645H70.8812V527.966L67.4853 529.982L66.8984 529.046L71.0909 526.469H72.2228V539.645Z" fill="url(#paint22_linear_122_130)" fill-opacity="0.6"/>
<path d="M70.9651 550.013C72.4604 550.013 73.5924 550.643 74.361 551.904C75.1436 553.151 75.5349 554.966 75.5349 557.349C75.5349 559.732 75.1436 561.554 74.361 562.815C73.5924 564.075 72.4604 564.706 70.9651 564.706C69.4838 564.706 68.3518 564.075 67.5692 562.815C66.7866 561.554 66.3953 559.732 66.3953 557.349C66.3953 554.98 66.7866 553.165 67.5692 551.904C68.3518 550.643 69.4838 550.013 70.9651 550.013ZM67.8836 557.349C67.8836 559.039 68.0374 560.362 68.3448 561.318L72.9985 552.112C72.5093 551.461 71.8315 551.135 70.9651 551.135C70.0008 551.135 69.2462 551.648 68.7012 552.673C68.1561 553.684 67.8836 555.243 67.8836 557.349ZM70.9651 563.563C71.9433 563.563 72.705 563.057 73.25 562.046C73.795 561.02 74.0675 559.455 74.0675 557.349C74.0675 555.562 73.8928 554.176 73.5435 553.192L68.8898 562.482C69.3929 563.202 70.0847 563.563 70.9651 563.563Z" fill="url(#paint23_linear_122_130)" fill-opacity="0.6"/>
<path d="M72.2228 587.148H75.3043V588.249H67.3176V587.148H70.8812V575.468L67.4853 577.484L66.8984 576.549L71.0909 573.972H72.2228V587.148Z" fill="url(#paint24_linear_122_130)" fill-opacity="0.6"/>
<path d="M72.2228 610.899H75.3043V612H67.3176V610.899H70.8812V599.219L67.4853 601.235L66.8984 600.3L71.0909 597.723H72.2228V610.899Z" fill="url(#paint25_linear_122_130)" fill-opacity="0.6"/>
<path d="M12.5698 336.253C14.0651 336.253 15.1971 336.884 15.9657 338.144C16.7483 339.391 17.1396 341.206 17.1396 343.589C17.1396 345.972 16.7483 347.794 15.9657 349.055C15.1971 350.316 14.0651 350.946 12.5698 350.946C11.0885 350.946 9.95649 350.316 9.1739 349.055C8.3913 347.794 8 345.972 8 343.589C8 341.22 8.3913 339.405 9.1739 338.144C9.95649 336.884 11.0885 336.253 12.5698 336.253ZM9.48833 343.589C9.48833 345.28 9.64206 346.603 9.9495 347.559L14.6032 338.352C14.114 337.701 13.4363 337.375 12.5698 337.375C11.6055 337.375 10.8509 337.888 10.3059 338.913C9.76084 339.925 9.48833 341.483 9.48833 343.589ZM12.5698 349.803C13.5481 349.803 14.3097 349.297 14.8547 348.286C15.3997 347.261 15.6722 345.695 15.6722 343.589C15.6722 341.802 15.4976 340.417 15.1482 339.433L10.4945 348.722C10.9976 349.443 11.6894 349.803 12.5698 349.803Z" fill="url(#paint26_linear_122_130)" fill-opacity="0.6"/>
<path d="M12.5698 360.004C14.0651 360.004 15.1971 360.635 15.9657 361.895C16.7483 363.142 17.1396 364.957 17.1396 367.34C17.1396 369.723 16.7483 371.545 15.9657 372.806C15.1971 374.067 14.0651 374.697 12.5698 374.697C11.0885 374.697 9.95649 374.067 9.1739 372.806C8.3913 371.545 8 369.723 8 367.34C8 364.971 8.3913 363.156 9.1739 361.895C9.95649 360.635 11.0885 360.004 12.5698 360.004ZM9.48833 367.34C9.48833 369.031 9.64206 370.354 9.9495 371.31L14.6032 362.103C14.114 361.452 13.4363 361.126 12.5698 361.126C11.6055 361.126 10.8509 361.639 10.3059 362.664C9.76084 363.676 9.48833 365.234 9.48833 367.34ZM12.5698 373.554C13.5481 373.554 14.3097 373.049 14.8547 372.037C15.3997 371.012 15.6722 369.446 15.6722 367.34C15.6722 365.553 15.4976 364.168 15.1482 363.184L10.4945 372.474C10.9976 373.194 11.6894 373.554 12.5698 373.554Z" fill="url(#paint27_linear_122_130)" fill-opacity="0.6"/>
<path d="M13.8276 397.139H16.909V398.24H8.92235V397.139H12.486V385.459L9.09005 387.475L8.5031 386.54L12.6956 383.963H13.8276V397.139Z" fill="url(#paint28_linear_122_130)" fill-opacity="0.6"/>
<path d="M12.5698 407.506C14.0651 407.506 15.1971 408.137 15.9657 409.398C16.7483 410.644 17.1396 412.459 17.1396 414.842C17.1396 417.225 16.7483 419.047 15.9657 420.308C15.1971 421.569 14.0651 422.199 12.5698 422.199C11.0885 422.199 9.95649 421.569 9.1739 420.308C8.3913 419.047 8 417.225 8 414.842C8 412.473 8.3913 410.658 9.1739 409.398C9.95649 408.137 11.0885 407.506 12.5698 407.506ZM9.48833 414.842C9.48833 416.533 9.64206 417.856 9.9495 418.812L14.6032 409.605C14.114 408.954 13.4363 408.629 12.5698 408.629C11.6055 408.629 10.8509 409.141 10.3059 410.166C9.76084 411.178 9.48833 412.737 9.48833 414.842ZM12.5698 421.056C13.5481 421.056 14.3097 420.551 14.8547 419.539C15.3997 418.514 15.6722 416.948 15.6722 414.842C15.6722 413.055 15.4976 411.67 15.1482 410.686L10.4945 419.976C10.9976 420.696 11.6894 421.056 12.5698 421.056Z" fill="url(#paint29_linear_122_130)" fill-opacity="0.6"/>
<path d="M13.8276 444.641H16.909V445.743H8.92235V444.641H12.486V432.962L9.09005 434.977L8.5031 434.042L12.6956 431.465H13.8276V444.641Z" fill="url(#paint30_linear_122_130)" fill-opacity="0.6"/>
<path d="M13.8276 468.392H16.909V469.494H8.92235V468.392H12.486V456.713L9.09005 458.728L8.5031 457.793L12.6956 455.216H13.8276V468.392Z" fill="url(#paint31_linear_122_130)" fill-opacity="0.6"/>
<path d="M52.7577 302.135H55.8392V303.236H47.8525V302.135H51.4162V290.455L48.0202 292.471L47.4333 291.536L51.6258 288.959H52.7577V302.135Z" fill="url(#paint32_linear_122_130)" fill-opacity="0.6"/>
<path d="M51.5 312.502C52.9953 312.502 54.1273 313.133 54.8959 314.393C55.6785 315.64 56.0698 317.455 56.0698 319.838C56.0698 322.221 55.6785 324.043 54.8959 325.304C54.1273 326.565 52.9953 327.195 51.5 327.195C50.0187 327.195 48.8867 326.565 48.1041 325.304C47.3215 324.043 46.9302 322.221 46.9302 319.838C46.9302 317.469 47.3215 315.654 48.1041 314.393C48.8867 313.133 50.0187 312.502 51.5 312.502ZM48.4185 319.838C48.4185 321.529 48.5723 322.852 48.8797 323.808L53.5334 314.601C53.0442 313.95 52.3664 313.624 51.5 313.624C50.5357 313.624 49.7811 314.137 49.2361 315.162C48.691 316.174 48.4185 317.732 48.4185 319.838ZM51.5 326.052C52.4782 326.052 53.2399 325.546 53.7849 324.535C54.3299 323.51 54.6024 321.944 54.6024 319.838C54.6024 318.051 54.4277 316.665 54.0784 315.682L49.4247 324.971C49.9278 325.692 50.6196 326.052 51.5 326.052Z" fill="url(#paint33_linear_122_130)" fill-opacity="0.6"/>
<path d="M52.7577 349.637H55.8392V350.738H47.8525V349.637H51.4162V337.957L48.0202 339.973L47.4333 339.038L51.6258 336.461H52.7577V349.637Z" fill="url(#paint34_linear_122_130)" fill-opacity="0.6"/>
<path d="M52.7577 373.388H55.8392V374.489H47.8525V373.388H51.4162V361.708L48.0202 363.724L47.4333 362.789L51.6258 360.212H52.7577V373.388Z" fill="url(#paint35_linear_122_130)" fill-opacity="0.6"/>
<path d="M51.5 383.755C52.9953 383.755 54.1273 384.386 54.8959 385.646C55.6785 386.893 56.0698 388.708 56.0698 391.091C56.0698 393.474 55.6785 395.296 54.8959 396.557C54.1273 397.818 52.9953 398.448 51.5 398.448C50.0187 398.448 48.8867 397.818 48.1041 396.557C47.3215 395.296 46.9302 393.474 46.9302 391.091C46.9302 388.722 47.3215 386.907 48.1041 385.646C48.8867 384.386 50.0187 383.755 51.5 383.755ZM48.4185 391.091C48.4185 392.782 48.5723 394.105 48.8797 395.061L53.5334 385.854C53.0442 385.203 52.3664 384.878 51.5 384.878C50.5357 384.878 49.7811 385.39 49.2361 386.415C48.691 387.427 48.4185 388.985 48.4185 391.091ZM51.5 397.305C52.4782 397.305 53.2399 396.8 53.7849 395.788C54.3299 394.763 54.6024 393.197 54.6024 391.091C54.6024 389.304 54.4277 387.919 54.0784 386.935L49.4247 396.225C49.9278 396.945 50.6196 397.305 51.5 397.305Z" fill="url(#paint36_linear_122_130)" fill-opacity="0.6"/>
<path d="M52.7577 420.89H55.8392V421.992H47.8525V420.89H51.4162V409.21L48.0202 411.226L47.4333 410.291L51.6258 407.714H52.7577V420.89Z" fill="url(#paint37_linear_122_130)" fill-opacity="0.6"/>
<path d="M52.7577 444.641H55.8392V445.743H47.8525V444.641H51.4162V432.962L48.0202 434.977L47.4333 434.042L51.6258 431.465H52.7577V444.641Z" fill="url(#paint38_linear_122_130)" fill-opacity="0.6"/>
<path d="M51.5 455.008C52.9953 455.008 54.1273 455.639 54.8959 456.9C55.6785 458.147 56.0698 459.962 56.0698 462.345C56.0698 464.728 55.6785 466.549 54.8959 467.81C54.1273 469.071 52.9953 469.701 51.5 469.701C50.0187 469.701 48.8867 469.071 48.1041 467.81C47.3215 466.549 46.9302 464.728 46.9302 462.345C46.9302 459.975 47.3215 458.16 48.1041 456.9C48.8867 455.639 50.0187 455.008 51.5 455.008ZM48.4185 462.345C48.4185 464.035 48.5723 465.358 48.8797 466.314L53.5334 457.107C53.0442 456.456 52.3664 456.131 51.5 456.131C50.5357 456.131 49.7811 456.643 49.2361 457.669C48.691 458.68 48.4185 460.239 48.4185 462.345ZM51.5 468.558C52.4782 468.558 53.2399 468.053 53.7849 467.041C54.3299 466.016 54.6024 464.451 54.6024 462.345C54.6024 460.557 54.4277 459.172 54.0784 458.188L49.4247 467.478C49.9278 468.198 50.6196 468.558 51.5 468.558Z" fill="url(#paint39_linear_122_130)" fill-opacity="0.6"/>
<path d="M52.7577 492.143H55.8392V493.245H47.8525V492.143H51.4162V480.464L48.0202 482.48L47.4333 481.544L51.6258 478.967H52.7577V492.143Z" fill="url(#paint40_linear_122_130)" fill-opacity="0.6"/>
<path d="M51.5 502.511C52.9953 502.511 54.1273 503.141 54.8959 504.402C55.6785 505.649 56.0698 507.464 56.0698 509.847C56.0698 512.23 55.6785 514.052 54.8959 515.312C54.1273 516.573 52.9953 517.204 51.5 517.204C50.0187 517.204 48.8867 516.573 48.1041 515.312C47.3215 514.052 46.9302 512.23 46.9302 509.847C46.9302 507.478 47.3215 505.663 48.1041 504.402C48.8867 503.141 50.0187 502.511 51.5 502.511ZM48.4185 509.847C48.4185 511.537 48.5723 512.86 48.8797 513.816L53.5334 504.61C53.0442 503.958 52.3664 503.633 51.5 503.633C50.5357 503.633 49.7811 504.145 49.2361 505.171C48.691 506.182 48.4185 507.741 48.4185 509.847ZM51.5 516.061C52.4782 516.061 53.2399 515.555 53.7849 514.543C54.3299 513.518 54.6024 511.953 54.6024 509.847C54.6024 508.059 54.4277 506.674 54.0784 505.69L49.4247 514.98C49.9278 515.7 50.6196 516.061 51.5 516.061Z" fill="url(#paint41_linear_122_130)" fill-opacity="0.6"/>
<path d="M90.4302 288.751C91.9255 288.751 93.0575 289.381 93.8261 290.642C94.6087 291.889 95 293.704 95 296.087C95 298.47 94.6087 300.292 93.8261 301.553C93.0575 302.814 91.9255 303.444 90.4302 303.444C88.9489 303.444 87.8169 302.814 87.0343 301.553C86.2517 300.292 85.8604 298.47 85.8604 296.087C85.8604 293.718 86.2517 291.903 87.0343 290.642C87.8169 289.381 88.9489 288.751 90.4302 288.751ZM87.3487 296.087C87.3487 297.777 87.5024 299.101 87.8099 300.057L92.4636 290.85C91.9744 290.199 91.2966 289.873 90.4302 289.873C89.4659 289.873 88.7113 290.386 88.1663 291.411C87.6212 292.423 87.3487 293.981 87.3487 296.087ZM90.4302 302.301C91.4084 302.301 92.1701 301.795 92.7151 300.784C93.2601 299.759 93.5326 298.193 93.5326 296.087C93.5326 294.3 93.3579 292.914 93.0086 291.931L88.3549 301.22C88.858 301.941 89.5498 302.301 90.4302 302.301Z" fill="url(#paint42_linear_122_130)" fill-opacity="0.6"/>
<path d="M91.6879 325.886H94.7694V326.987H86.7827V325.886H90.3463V314.206L86.9504 316.222L86.3635 315.287L90.556 312.71H91.6879V325.886Z" fill="url(#paint43_linear_122_130)" fill-opacity="0.6"/>
<path d="M91.6879 349.637H94.7694V350.738H86.7827V349.637H90.3463V337.957L86.9504 339.973L86.3635 339.038L90.556 336.461H91.6879V349.637Z" fill="url(#paint44_linear_122_130)" fill-opacity="0.6"/>
<path d="M90.4302 360.004C91.9255 360.004 93.0575 360.635 93.8261 361.895C94.6087 363.142 95 364.957 95 367.34C95 369.723 94.6087 371.545 93.8261 372.806C93.0575 374.067 91.9255 374.697 90.4302 374.697C88.9489 374.697 87.8169 374.067 87.0343 372.806C86.2517 371.545 85.8604 369.723 85.8604 367.34C85.8604 364.971 86.2517 363.156 87.0343 361.895C87.8169 360.635 88.9489 360.004 90.4302 360.004ZM87.3487 367.34C87.3487 369.031 87.5024 370.354 87.8099 371.31L92.4636 362.103C91.9744 361.452 91.2966 361.126 90.4302 361.126C89.4659 361.126 88.7113 361.639 88.1663 362.664C87.6212 363.676 87.3487 365.234 87.3487 367.34ZM90.4302 373.554C91.4084 373.554 92.1701 373.049 92.7151 372.037C93.2601 371.012 93.5326 369.446 93.5326 367.34C93.5326 365.553 93.3579 364.168 93.0086 363.184L88.3549 372.474C88.858 373.194 89.5498 373.554 90.4302 373.554Z" fill="url(#paint45_linear_122_130)" fill-opacity="0.6"/>
<path d="M90.4302 383.755C91.9255 383.755 93.0575 384.386 93.8261 385.646C94.6087 386.893 95 388.708 95 391.091C95 393.474 94.6087 395.296 93.8261 396.557C93.0575 397.818 91.9255 398.448 90.4302 398.448C88.9489 398.448 87.8169 397.818 87.0343 396.557C86.2517 395.296 85.8604 393.474 85.8604 391.091C85.8604 388.722 86.2517 386.907 87.0343 385.646C87.8169 384.386 88.9489 383.755 90.4302 383.755ZM87.3487 391.091C87.3487 392.782 87.5024 394.105 87.8099 395.061L92.4636 385.854C91.9744 385.203 91.2966 384.878 90.4302 384.878C89.4659 384.878 88.7113 385.39 88.1663 386.415C87.6212 387.427 87.3487 388.985 87.3487 391.091ZM90.4302 397.305C91.4084 397.305 92.1701 396.8 92.7151 395.788C93.2601 394.763 93.5326 393.197 93.5326 391.091C93.5326 389.304 93.3579 387.919 93.0086 386.935L88.3549 396.225C88.858 396.945 89.5498 397.305 90.4302 397.305Z" fill="url(#paint46_linear_122_130)" fill-opacity="0.6"/>
<g opacity="0.6">
<path d="M918.93 -35C920.356 -35 921.436 -34.395 922.17 -33.1851C922.916 -31.9885 923.29 -30.2468 923.29 -27.9599C923.29 -25.673 922.916 -23.9246 922.17 -22.7147C921.436 -21.5048 920.356 -20.8998 918.93 -20.8998C917.517 -20.8998 916.437 -21.5048 915.69 -22.7147C914.943 -23.9246 914.57 -25.673 914.57 -27.9599C914.57 -30.2335 914.943 -31.9752 915.69 -33.1851C916.437 -34.395 917.517 -35 918.93 -35ZM915.99 -27.9599C915.99 -26.3378 916.137 -25.068 916.43 -24.1506L920.87 -32.9857C920.403 -33.6106 919.756 -33.923 918.93 -33.923C918.01 -33.923 917.29 -33.4311 916.77 -32.4472C916.25 -31.4766 915.99 -29.9808 915.99 -27.9599ZM918.93 -21.9967C919.863 -21.9967 920.59 -22.482 921.11 -23.4526C921.63 -24.4365 921.89 -25.9389 921.89 -27.9599C921.89 -29.675 921.723 -31.0046 921.39 -31.9486L916.95 -23.0338C917.43 -22.3424 918.09 -21.9967 918.93 -21.9967Z" fill="url(#paint47_linear_122_130)"/>
<path d="M920.13 0.636548H923.07V1.69356H915.45V0.636548H918.85V-10.5718L915.61 -8.63727L915.05 -9.53474L919.05 -12.0078H920.13V0.636548Z" fill="url(#paint48_linear_122_130)"/>
<path d="M918.93 10.5856C920.356 10.5856 921.436 11.1906 922.17 12.4005C922.916 13.5971 923.29 15.3389 923.29 17.6257C923.29 19.9126 922.916 21.661 922.17 22.8709C921.436 24.0808 920.356 24.6858 918.93 24.6858C917.517 24.6858 916.437 24.0808 915.69 22.8709C914.943 21.661 914.57 19.9126 914.57 17.6257C914.57 15.3522 914.943 13.6104 915.69 12.4005C916.437 11.1906 917.517 10.5856 918.93 10.5856ZM915.99 17.6257C915.99 19.2478 916.137 20.5176 916.43 21.435L920.87 12.5999C920.403 11.975 919.756 11.6626 918.93 11.6626C918.01 11.6626 917.29 12.1545 916.77 13.1384C916.25 14.109 915.99 15.6048 915.99 17.6257ZM918.93 23.5889C919.863 23.5889 920.59 23.1036 921.11 22.133C921.63 21.1491 921.89 19.6467 921.89 17.6257C921.89 15.9106 921.723 14.581 921.39 13.637L916.95 22.5518C917.43 23.2432 918.09 23.5889 918.93 23.5889Z" fill="url(#paint49_linear_122_130)"/>
<path d="M920.13 46.2221H923.07V47.2792H915.45V46.2221H918.85V35.0138L915.61 36.9483L915.05 36.0509L919.05 33.5778H920.13V46.2221Z" fill="url(#paint50_linear_122_130)"/>
<path d="M920.13 69.015H923.07V70.072H915.45V69.015H918.85V57.8066L915.61 59.7411L915.05 58.8437L919.05 56.3706H920.13V69.015Z" fill="url(#paint51_linear_122_130)"/>
<path d="M918.93 78.964C920.356 78.964 921.436 79.569 922.17 80.7789C922.916 81.9755 923.29 83.7173 923.29 86.0041C923.29 88.291 922.916 90.0394 922.17 91.2493C921.436 92.4593 920.356 93.0642 918.93 93.0642C917.517 93.0642 916.437 92.4593 915.69 91.2493C914.943 90.0394 914.57 88.291 914.57 86.0041C914.57 83.7306 914.943 81.9888 915.69 80.7789C916.437 79.569 917.517 78.964 918.93 78.964ZM915.99 86.0041C915.99 87.6262 916.137 88.896 916.43 89.8134L920.87 80.9783C920.403 80.3534 919.756 80.041 918.93 80.041C918.01 80.041 917.29 80.5329 916.77 81.5168C916.25 82.4874 915.99 83.9832 915.99 86.0041ZM918.93 91.9673C919.863 91.9673 920.59 91.482 921.11 90.5114C921.63 89.5275 921.89 88.0251 921.89 86.0041C921.89 84.289 921.723 82.9594 921.39 82.0154L916.95 90.9302C917.43 91.6216 918.09 91.9673 918.93 91.9673Z" fill="url(#paint52_linear_122_130)"/>
<path d="M920.13 114.601H923.07V115.658H915.45V114.601H918.85V103.392L915.61 105.327L915.05 104.429L919.05 101.956H920.13V114.601Z" fill="url(#paint53_linear_122_130)"/>
<path d="M918.93 124.55C920.356 124.55 921.436 125.155 922.17 126.365C922.916 127.561 923.29 129.303 923.29 131.59C923.29 133.877 922.916 135.625 922.17 136.835C921.436 138.045 920.356 138.65 918.93 138.65C917.517 138.65 916.437 138.045 915.69 136.835C914.943 135.625 914.57 133.877 914.57 131.59C914.57 129.316 914.943 127.574 915.69 126.365C916.437 125.155 917.517 124.55 918.93 124.55ZM915.99 131.59C915.99 133.212 916.137 134.482 916.43 135.399L920.87 126.564C920.403 125.939 919.756 125.627 918.93 125.627C918.01 125.627 917.29 126.119 916.77 127.102C916.25 128.073 915.99 129.569 915.99 131.59ZM918.93 137.553C919.863 137.553 920.59 137.068 921.11 136.097C921.63 135.113 921.89 133.611 921.89 131.59C921.89 129.875 921.723 128.545 921.39 127.601L916.95 136.516C917.43 137.207 918.09 137.553 918.93 137.553Z" fill="url(#paint54_linear_122_130)"/>
<path d="M918.93 147.342C920.356 147.342 921.436 147.947 922.17 149.157C922.916 150.354 923.29 152.096 923.29 154.383C923.29 156.669 922.916 158.418 922.17 159.628C921.436 160.838 920.356 161.443 918.93 161.443C917.517 161.443 916.437 160.838 915.69 159.628C914.943 158.418 914.57 156.669 914.57 154.383C914.57 152.109 914.943 150.367 915.69 149.157C916.437 147.947 917.517 147.342 918.93 147.342ZM915.99 154.383C915.99 156.005 916.137 157.274 916.43 158.192L920.87 149.357C920.403 148.732 919.756 148.419 918.93 148.419C918.01 148.419 917.29 148.911 916.77 149.895C916.25 150.866 915.99 152.362 915.99 154.383ZM918.93 160.346C919.863 160.346 920.59 159.86 921.11 158.89C921.63 157.906 921.89 156.404 921.89 154.383C921.89 152.667 921.723 151.338 921.39 150.394L916.95 159.309C917.43 160 918.09 160.346 918.93 160.346Z" fill="url(#paint55_linear_122_130)"/>
<path d="M920.13 182.979H923.07V184.036H915.45V182.979H918.85V171.771L915.61 173.705L915.05 172.808L919.05 170.335H920.13V182.979Z" fill="url(#paint56_linear_122_130)"/>
<path d="M918.93 192.928C920.356 192.928 921.436 193.533 922.17 194.743C922.916 195.94 923.29 197.681 923.29 199.968C923.29 202.255 922.916 204.003 922.17 205.213C921.436 206.423 920.356 207.028 918.93 207.028C917.517 207.028 916.437 206.423 915.69 205.213C914.943 204.003 914.57 202.255 914.57 199.968C914.57 197.695 914.943 195.953 915.69 194.743C916.437 193.533 917.517 192.928 918.93 192.928ZM915.99 199.968C915.99 201.59 916.137 202.86 916.43 203.777L920.87 194.942C920.403 194.317 919.756 194.005 918.93 194.005C918.01 194.005 917.29 194.497 916.77 195.481C916.25 196.451 915.99 197.947 915.99 199.968ZM918.93 205.931C919.863 205.931 920.59 205.446 921.11 204.475C921.63 203.492 921.89 201.989 921.89 199.968C921.89 198.253 921.723 196.923 921.39 195.979L916.95 204.894C917.43 205.586 918.09 205.931 918.93 205.931Z" fill="url(#paint57_linear_122_130)"/>
<path d="M920.13 228.565H923.07V229.622H915.45V228.565H918.85V217.356L915.61 219.291L915.05 218.393L919.05 215.92H920.13V228.565Z" fill="url(#paint58_linear_122_130)"/>
<path d="M920.13 251.357H923.07V252.414H915.45V251.357H918.85V240.149L915.61 242.084L915.05 241.186L919.05 238.713H920.13V251.357Z" fill="url(#paint59_linear_122_130)"/>
<path d="M956.07 10.5856C957.497 10.5856 958.577 11.1906 959.31 12.4005C960.057 13.5971 960.43 15.3389 960.43 17.6257C960.43 19.9126 960.057 21.661 959.31 22.8709C958.577 24.0808 957.497 24.6858 956.07 24.6858C954.657 24.6858 953.577 24.0808 952.83 22.8709C952.084 21.661 951.71 19.9126 951.71 17.6257C951.71 15.3522 952.084 13.6104 952.83 12.4005C953.577 11.1906 954.657 10.5856 956.07 10.5856ZM953.13 17.6257C953.13 19.2478 953.277 20.5176 953.57 21.435L958.01 12.5999C957.543 11.975 956.897 11.6626 956.07 11.6626C955.15 11.6626 954.43 12.1545 953.91 13.1384C953.39 14.109 953.13 15.6048 953.13 17.6257ZM956.07 23.5889C957.003 23.5889 957.73 23.1036 958.25 22.133C958.77 21.1491 959.03 19.6467 959.03 17.6257C959.03 15.9106 958.863 14.581 958.53 13.637L954.09 22.5518C954.57 23.2432 955.23 23.5889 956.07 23.5889Z" fill="url(#paint60_linear_122_130)"/>
<path d="M957.27 46.2221H960.21V47.2792H952.59V46.2221H955.99V35.0138L952.75 36.9483L952.19 36.0509L956.19 33.5778H957.27V46.2221Z" fill="url(#paint61_linear_122_130)"/>
<path d="M956.07 56.1712C957.497 56.1712 958.577 56.7762 959.31 57.9861C960.057 59.1827 960.43 60.9245 960.43 63.2113C960.43 65.4982 960.057 67.2466 959.31 68.4565C958.577 69.6664 957.497 70.2714 956.07 70.2714C954.657 70.2714 953.577 69.6664 952.83 68.4565C952.084 67.2466 951.71 65.4982 951.71 63.2113C951.71 60.9378 952.084 59.196 952.83 57.9861C953.577 56.7762 954.657 56.1712 956.07 56.1712ZM953.13 63.2113C953.13 64.8334 953.277 66.1032 953.57 67.0206L958.01 58.1855C957.543 57.5606 956.897 57.2482 956.07 57.2482C955.15 57.2482 954.43 57.7401 953.91 58.724C953.39 59.6946 953.13 61.1904 953.13 63.2113ZM956.07 69.1745C957.003 69.1745 957.73 68.6892 958.25 67.7186C958.77 66.7347 959.03 65.2323 959.03 63.2113C959.03 61.4962 958.863 60.1666 958.53 59.2226L954.09 68.1374C954.57 68.8288 955.23 69.1745 956.07 69.1745Z" fill="url(#paint62_linear_122_130)"/>
<path d="M956.07 78.964C957.497 78.964 958.577 79.569 959.31 80.7789C960.057 81.9755 960.43 83.7173 960.43 86.0041C960.43 88.291 960.057 90.0394 959.31 91.2493C958.577 92.4593 957.497 93.0642 956.07 93.0642C954.657 93.0642 953.577 92.4593 952.83 91.2493C952.084 90.0394 951.71 88.291 951.71 86.0041C951.71 83.7306 952.084 81.9888 952.83 80.7789C953.577 79.569 954.657 78.964 956.07 78.964ZM953.13 86.0041C953.13 87.6262 953.277 88.896 953.57 89.8134L958.01 80.9783C957.543 80.3534 956.897 80.041 956.07 80.041C955.15 80.041 954.43 80.5329 953.91 81.5168C953.39 82.4874 953.13 83.9832 953.13 86.0041ZM956.07 91.9673C957.003 91.9673 957.73 91.482 958.25 90.5114C958.77 89.5275 959.03 88.0251 959.03 86.0041C959.03 84.289 958.863 82.9594 958.53 82.0154L954.09 90.9302C954.57 91.6216 955.23 91.9673 956.07 91.9673Z" fill="url(#paint63_linear_122_130)"/>
<path d="M957.27 114.601H960.21V115.658H952.59V114.601H955.99V103.392L952.75 105.327L952.19 104.429L956.19 101.956H957.27V114.601Z" fill="url(#paint64_linear_122_130)"/>
<path d="M956.07 124.55C957.497 124.55 958.577 125.155 959.31 126.365C960.057 127.561 960.43 129.303 960.43 131.59C960.43 133.877 960.057 135.625 959.31 136.835C958.577 138.045 957.497 138.65 956.07 138.65C954.657 138.65 953.577 138.045 952.83 136.835C952.084 135.625 951.71 133.877 951.71 131.59C951.71 129.316 952.084 127.574 952.83 126.365C953.577 125.155 954.657 124.55 956.07 124.55ZM953.13 131.59C953.13 133.212 953.277 134.482 953.57 135.399L958.01 126.564C957.543 125.939 956.897 125.627 956.07 125.627C955.15 125.627 954.43 126.119 953.91 127.102C953.39 128.073 953.13 129.569 953.13 131.59ZM956.07 137.553C957.003 137.553 957.73 137.068 958.25 136.097C958.77 135.113 959.03 133.611 959.03 131.59C959.03 129.875 958.863 128.545 958.53 127.601L954.09 136.516C954.57 137.207 955.23 137.553 956.07 137.553Z" fill="url(#paint65_linear_122_130)"/>
<path d="M957.27 160.186H960.21V161.243H952.59V160.186H955.99V148.978L952.75 150.912L952.19 150.015L956.19 147.542H957.27V160.186Z" fill="url(#paint66_linear_122_130)"/>
<path d="M956.07 170.135C957.497 170.135 958.577 170.74 959.31 171.95C960.057 173.147 960.43 174.888 960.43 177.175C960.43 179.462 960.057 181.211 959.31 182.421C958.577 183.63 957.497 184.235 956.07 184.235C954.657 184.235 953.577 183.63 952.83 182.421C952.084 181.211 951.71 179.462 951.71 177.175C951.71 174.902 952.084 173.16 952.83 171.95C953.577 170.74 954.657 170.135 956.07 170.135ZM953.13 177.175C953.13 178.797 953.277 180.067 953.57 180.985L958.01 172.15C957.543 171.525 956.897 171.212 956.07 171.212C955.15 171.212 954.43 171.704 953.91 172.688C953.39 173.659 953.13 175.154 953.13 177.175ZM956.07 183.139C957.003 183.139 957.73 182.653 958.25 181.683C958.77 180.699 959.03 179.196 959.03 177.175C959.03 175.46 958.863 174.131 958.53 173.187L954.09 182.101C954.57 182.793 955.23 183.139 956.07 183.139Z" fill="url(#paint67_linear_122_130)"/>
<path d="M956.07 192.928C957.497 192.928 958.577 193.533 959.31 194.743C960.057 195.94 960.43 197.681 960.43 199.968C960.43 202.255 960.057 204.003 959.31 205.213C958.577 206.423 957.497 207.028 956.07 207.028C954.657 207.028 953.577 206.423 952.83 205.213C952.084 204.003 951.71 202.255 951.71 199.968C951.71 197.695 952.084 195.953 952.83 194.743C953.577 193.533 954.657 192.928 956.07 192.928ZM953.13 199.968C953.13 201.59 953.277 202.86 953.57 203.777L958.01 194.942C957.543 194.317 956.897 194.005 956.07 194.005C955.15 194.005 954.43 194.497 953.91 195.481C953.39 196.451 953.13 197.947 953.13 199.968ZM956.07 205.931C957.003 205.931 957.73 205.446 958.25 204.475C958.77 203.492 959.03 201.989 959.03 199.968C959.03 198.253 958.863 196.923 958.53 195.979L954.09 204.894C954.57 205.586 955.23 205.931 956.07 205.931Z" fill="url(#paint68_linear_122_130)"/>
<path d="M957.27 228.565H960.21V229.622H952.59V228.565H955.99V217.356L952.75 219.291L952.19 218.393L956.19 215.92H957.27V228.565Z" fill="url(#paint69_linear_122_130)"/>
<path d="M956.07 238.514C957.497 238.514 958.577 239.119 959.31 240.329C960.057 241.525 960.43 243.267 960.43 245.554C960.43 247.841 960.057 249.589 959.31 250.799C958.577 252.009 957.497 252.614 956.07 252.614C954.657 252.614 953.577 252.009 952.83 250.799C952.084 249.589 951.71 247.841 951.71 245.554C951.71 243.28 952.084 241.538 952.83 240.329C953.577 239.119 954.657 238.514 956.07 238.514ZM953.13 245.554C953.13 247.176 953.277 248.446 953.57 249.363L958.01 240.528C957.543 239.903 956.897 239.591 956.07 239.591C955.15 239.591 954.43 240.083 953.91 241.066C953.39 242.037 953.13 243.533 953.13 245.554ZM956.07 251.517C957.003 251.517 957.73 251.032 958.25 250.061C958.77 249.077 959.03 247.575 959.03 245.554C959.03 243.839 958.863 242.509 958.53 241.565L954.09 250.48C954.57 251.171 955.23 251.517 956.07 251.517Z" fill="url(#paint70_linear_122_130)"/>
<path d="M957.27 274.15H960.21V275.207H952.59V274.15H955.99V262.942L952.75 264.876L952.19 263.979L956.19 261.506H957.27V274.15Z" fill="url(#paint71_linear_122_130)"/>
<path d="M957.27 296.943H960.21V298H952.59V296.943H955.99V285.735L952.75 287.669L952.19 286.772L956.19 284.299H957.27V296.943Z" fill="url(#paint72_linear_122_130)"/>
<path d="M900.36 33.3784C901.786 33.3784 902.866 33.9834 903.599 35.1933C904.346 36.3899 904.719 38.1317 904.719 40.4185C904.719 42.7054 904.346 44.4538 903.599 45.6637C902.866 46.8736 901.786 47.4786 900.36 47.4786C898.946 47.4786 897.867 46.8736 897.12 45.6637C896.373 44.4538 896 42.7054 896 40.4185C896 38.145 896.373 36.4032 897.12 35.1933C897.867 33.9834 898.946 33.3784 900.36 33.3784ZM897.42 40.4185C897.42 42.0406 897.567 43.3104 897.86 44.2278L902.3 35.3927C901.833 34.7678 901.186 34.4554 900.36 34.4554C899.44 34.4554 898.72 34.9473 898.2 35.9312C897.68 36.9018 897.42 38.3976 897.42 40.4185ZM900.36 46.3817C901.293 46.3817 902.02 45.8964 902.54 44.9258C903.06 43.9419 903.319 42.4395 903.319 40.4185C903.319 38.7034 903.153 37.3738 902.82 36.4298L898.38 45.3446C898.86 46.036 899.52 46.3817 900.36 46.3817Z" fill="url(#paint73_linear_122_130)"/>
<path d="M900.36 56.1712C901.786 56.1712 902.866 56.7762 903.599 57.9861C904.346 59.1827 904.719 60.9245 904.719 63.2113C904.719 65.4982 904.346 67.2466 903.599 68.4565C902.866 69.6664 901.786 70.2714 900.36 70.2714C898.946 70.2714 897.867 69.6664 897.12 68.4565C896.373 67.2466 896 65.4982 896 63.2113C896 60.9378 896.373 59.196 897.12 57.9861C897.867 56.7762 898.946 56.1712 900.36 56.1712ZM897.42 63.2113C897.42 64.8334 897.567 66.1032 897.86 67.0206L902.3 58.1855C901.833 57.5606 901.186 57.2482 900.36 57.2482C899.44 57.2482 898.72 57.7401 898.2 58.724C897.68 59.6946 897.42 61.1904 897.42 63.2113ZM900.36 69.1745C901.293 69.1745 902.02 68.6892 902.54 67.7186C903.06 66.7347 903.319 65.2323 903.319 63.2113C903.319 61.4962 903.153 60.1666 902.82 59.2226L898.38 68.1374C898.86 68.8288 899.52 69.1745 900.36 69.1745Z" fill="url(#paint74_linear_122_130)"/>
<path d="M901.56 91.8078H904.499V92.8648H896.88V91.8078H900.28V80.5994L897.04 82.5339L896.48 81.6365L900.48 79.1635H901.56V91.8078Z" fill="url(#paint75_linear_122_130)"/>
<path d="M900.36 101.757C901.786 101.757 902.866 102.362 903.599 103.572C904.346 104.768 904.719 106.51 904.719 108.797C904.719 111.084 904.346 112.832 903.599 114.042C902.866 115.252 901.786 115.857 900.36 115.857C898.946 115.857 897.867 115.252 897.12 114.042C896.373 112.832 896 111.084 896 108.797C896 106.523 896.373 104.782 897.12 103.572C897.867 102.362 898.946 101.757 900.36 101.757ZM897.42 108.797C897.42 110.419 897.567 111.689 897.86 112.606L902.3 103.771C901.833 103.146 901.186 102.834 900.36 102.834C899.44 102.834 898.72 103.326 898.2 104.31C897.68 105.28 897.42 106.776 897.42 108.797ZM900.36 114.76C901.293 114.76 902.02 114.275 902.54 113.304C903.06 112.32 903.319 110.818 903.319 108.797C903.319 107.082 903.153 105.752 902.82 104.808L898.38 113.723C898.86 114.414 899.52 114.76 900.36 114.76Z" fill="url(#paint76_linear_122_130)"/>
<path d="M901.56 137.393H904.499V138.45H896.88V137.393H900.28V126.185L897.04 128.12L896.48 127.222L900.48 124.749H901.56V137.393Z" fill="url(#paint77_linear_122_130)"/>
<path d="M901.56 160.186H904.499V161.243H896.88V160.186H900.28V148.978L897.04 150.912L896.48 150.015L900.48 147.542H901.56V160.186Z" fill="url(#paint78_linear_122_130)"/>
<path d="M938.7 0.636548H941.64V1.69356H934.02V0.636548H937.42V-10.5718L934.18 -8.63727L933.62 -9.53474L937.62 -12.0078H938.7V0.636548Z" fill="url(#paint79_linear_122_130)"/>
<path d="M937.5 10.5856C938.927 10.5856 940.006 11.1906 940.74 12.4005C941.486 13.5971 941.86 15.3389 941.86 17.6257C941.86 19.9126 941.486 21.661 940.74 22.8709C940.006 24.0808 938.927 24.6858 937.5 24.6858C936.087 24.6858 935.007 24.0808 934.26 22.8709C933.514 21.661 933.14 19.9126 933.14 17.6257C933.14 15.3522 933.514 13.6104 934.26 12.4005C935.007 11.1906 936.087 10.5856 937.5 10.5856ZM934.56 17.6257C934.56 19.2478 934.707 20.5176 935 21.435L939.44 12.5999C938.973 11.975 938.327 11.6626 937.5 11.6626C936.58 11.6626 935.86 12.1545 935.34 13.1384C934.82 14.109 934.56 15.6048 934.56 17.6257ZM937.5 23.5889C938.433 23.5889 939.16 23.1036 939.68 22.133C940.2 21.1491 940.46 19.6467 940.46 17.6257C940.46 15.9106 940.293 14.581 939.96 13.637L935.52 22.5518C936 23.2432 936.66 23.5889 937.5 23.5889Z" fill="url(#paint80_linear_122_130)"/>
<path d="M938.7 46.2221H941.64V47.2792H934.02V46.2221H937.42V35.0138L934.18 36.9483L933.62 36.0509L937.62 33.5778H938.7V46.2221Z" fill="url(#paint81_linear_122_130)"/>
<path d="M938.7 69.015H941.64V70.072H934.02V69.015H937.42V57.8066L934.18 59.7411L933.62 58.8437L937.62 56.3706H938.7V69.015Z" fill="url(#paint82_linear_122_130)"/>
<path d="M937.5 78.964C938.927 78.964 940.006 79.569 940.74 80.7789C941.486 81.9755 941.86 83.7173 941.86 86.0041C941.86 88.291 941.486 90.0394 940.74 91.2493C940.006 92.4593 938.927 93.0642 937.5 93.0642C936.087 93.0642 935.007 92.4593 934.26 91.2493C933.514 90.0394 933.14 88.291 933.14 86.0041C933.14 83.7306 933.514 81.9888 934.26 80.7789C935.007 79.569 936.087 78.964 937.5 78.964ZM934.56 86.0041C934.56 87.6262 934.707 88.896 935 89.8134L939.44 80.9783C938.973 80.3534 938.327 80.041 937.5 80.041C936.58 80.041 935.86 80.5329 935.34 81.5168C934.82 82.4874 934.56 83.9832 934.56 86.0041ZM937.5 91.9673C938.433 91.9673 939.16 91.482 939.68 90.5114C940.2 89.5275 940.46 88.0251 940.46 86.0041C940.46 84.289 940.293 82.9594 939.96 82.0154L935.52 90.9302C936 91.6216 936.66 91.9673 937.5 91.9673Z" fill="url(#paint83_linear_122_130)"/>
<path d="M938.7 114.601H941.64V115.658H934.02V114.601H937.42V103.392L934.18 105.327L933.62 104.429L937.62 101.956H938.7V114.601Z" fill="url(#paint84_linear_122_130)"/>
<path d="M938.7 137.393H941.64V138.45H934.02V137.393H937.42V126.185L934.18 128.12L933.62 127.222L937.62 124.749H938.7V137.393Z" fill="url(#paint85_linear_122_130)"/>
<path d="M937.5 147.342C938.927 147.342 940.006 147.947 940.74 149.157C941.486 150.354 941.86 152.096 941.86 154.383C941.86 156.669 941.486 158.418 940.74 159.628C940.006 160.838 938.927 161.443 937.5 161.443C936.087 161.443 935.007 160.838 934.26 159.628C933.514 158.418 933.14 156.669 933.14 154.383C933.14 152.109 933.514 150.367 934.26 149.157C935.007 147.947 936.087 147.342 937.5 147.342ZM934.56 154.383C934.56 156.005 934.707 157.274 935 158.192L939.44 149.357C938.973 148.732 938.327 148.419 937.5 148.419C936.58 148.419 935.86 148.911 935.34 149.895C934.82 150.866 934.56 152.362 934.56 154.383ZM937.5 160.346C938.433 160.346 939.16 159.86 939.68 158.89C940.2 157.906 940.46 156.404 940.46 154.383C940.46 152.667 940.293 151.338 939.96 150.394L935.52 159.309C936 160 936.66 160.346 937.5 160.346Z" fill="url(#paint86_linear_122_130)"/>
<path d="M938.7 182.979H941.64V184.036H934.02V182.979H937.42V171.771L934.18 173.705L933.62 172.808L937.62 170.335H938.7V182.979Z" fill="url(#paint87_linear_122_130)"/>
<path d="M937.5 192.928C938.927 192.928 940.006 193.533 940.74 194.743C941.486 195.94 941.86 197.681 941.86 199.968C941.86 202.255 941.486 204.003 940.74 205.213C940.006 206.423 938.927 207.028 937.5 207.028C936.087 207.028 935.007 206.423 934.26 205.213C933.514 204.003 933.14 202.255 933.14 199.968C933.14 197.695 933.514 195.953 934.26 194.743C935.007 193.533 936.087 192.928 937.5 192.928ZM934.56 199.968C934.56 201.59 934.707 202.86 935 203.777L939.44 194.942C938.973 194.317 938.327 194.005 937.5 194.005C936.58 194.005 935.86 194.497 935.34 195.481C934.82 196.451 934.56 197.947 934.56 199.968ZM937.5 205.931C938.433 205.931 939.16 205.446 939.68 204.475C940.2 203.492 940.46 201.989 940.46 199.968C940.46 198.253 940.293 196.923 939.96 195.979L935.52 204.894C936 205.586 936.66 205.931 937.5 205.931Z" fill="url(#paint88_linear_122_130)"/>
<path d="M974.64 -12.2072C976.067 -12.2072 977.147 -11.6022 977.88 -10.3923C978.627 -9.1957 979 -7.45395 979 -5.16707C979 -2.88019 978.627 -1.13179 977.88 0.0781236C977.147 1.28804 976.067 1.893 974.64 1.893C973.227 1.893 972.147 1.28804 971.401 0.0781236C970.654 -1.13179 970.281 -2.88019 970.281 -5.16707C970.281 -7.44065 970.654 -9.1824 971.401 -10.3923C972.147 -11.6022 973.227 -12.2072 974.64 -12.2072ZM971.7 -5.16707C971.7 -3.54498 971.847 -2.27523 972.14 -1.35782L976.58 -10.1929C976.114 -10.8178 975.467 -11.1302 974.64 -11.1302C973.72 -11.1302 973 -10.6383 972.48 -9.6544C971.96 -8.68381 971.7 -7.18803 971.7 -5.16707ZM974.64 0.796097C975.574 0.796097 976.3 0.310802 976.82 -0.659792C977.34 -1.64368 977.6 -3.14611 977.6 -5.16707C977.6 -6.88223 977.433 -8.21181 977.1 -9.15581L972.66 -0.240978C973.14 0.450404 973.8 0.796097 974.64 0.796097Z" fill="url(#paint89_linear_122_130)"/>
<path d="M975.84 23.4293H978.78V24.4864H971.161V23.4293H974.56V12.221L971.321 14.1555L970.761 13.2581L974.76 10.785H975.84V23.4293Z" fill="url(#paint90_linear_122_130)"/>
<path d="M975.84 46.2221H978.78V47.2792H971.161V46.2221H974.56V35.0138L971.321 36.9483L970.761 36.0509L974.76 33.5778H975.84V46.2221Z" fill="url(#paint91_linear_122_130)"/>
<path d="M974.64 56.1712C976.067 56.1712 977.147 56.7762 977.88 57.9861C978.627 59.1827 979 60.9245 979 63.2113C979 65.4982 978.627 67.2466 977.88 68.4565C977.147 69.6664 976.067 70.2714 974.64 70.2714C973.227 70.2714 972.147 69.6664 971.401 68.4565C970.654 67.2466 970.281 65.4982 970.281 63.2113C970.281 60.9378 970.654 59.196 971.401 57.9861C972.147 56.7762 973.227 56.1712 974.64 56.1712ZM971.7 63.2113C971.7 64.8334 971.847 66.1032 972.14 67.0206L976.58 58.1855C976.114 57.5606 975.467 57.2482 974.64 57.2482C973.72 57.2482 973 57.7401 972.48 58.724C971.96 59.6946 971.7 61.1904 971.7 63.2113ZM974.64 69.1745C975.574 69.1745 976.3 68.6892 976.82 67.7186C977.34 66.7347 977.6 65.2323 977.6 63.2113C977.6 61.4962 977.433 60.1666 977.1 59.2226L972.66 68.1374C973.14 68.8288 973.8 69.1745 974.64 69.1745Z" fill="url(#paint92_linear_122_130)"/>
<path d="M974.64 78.964C976.067 78.964 977.147 79.569 977.88 80.7789C978.627 81.9755 979 83.7173 979 86.0041C979 88.291 978.627 90.0394 977.88 91.2493C977.147 92.4593 976.067 93.0642 974.64 93.0642C973.227 93.0642 972.147 92.4593 971.401 91.2493C970.654 90.0394 970.281 88.291 970.281 86.0041C970.281 83.7306 970.654 81.9888 971.401 80.7789C972.147 79.569 973.227 78.964 974.64 78.964ZM971.7 86.0041C971.7 87.6262 971.847 88.896 972.14 89.8134L976.58 80.9783C976.114 80.3534 975.467 80.041 974.64 80.041C973.72 80.041 973 80.5329 972.48 81.5168C971.96 82.4874 971.7 83.9832 971.7 86.0041ZM974.64 91.9673C975.574 91.9673 976.3 91.482 976.82 90.5114C977.34 89.5275 977.6 88.0251 977.6 86.0041C977.6 84.289 977.433 82.9594 977.1 82.0154L972.66 90.9302C973.14 91.6216 973.8 91.9673 974.64 91.9673Z" fill="url(#paint93_linear_122_130)"/>
</g>
</g>
<defs>
<filter id="filter0_f_122_130" x="-559.19" y="-721.19" width="2141.38" height="1500.38" filterUnits="userSpaceOnUse" color-interpolation-filters="sRGB">
<feFlood flood-opacity="0" result="BackgroundImageFix"/>
<feBlend mode="normal" in="SourceGraphic" in2="BackgroundImageFix" result="shape"/>
<feGaussianBlur stdDeviation="200.095" result="effect1_foregroundBlur_122_130"/>
</filter>
<linearGradient id="paint0_linear_122_130" x1="51.5" y1="265" x2="51.5" y2="576.381" gradientUnits="userSpaceOnUse">
<stop stop-color="#F7DD43"/>
<stop offset="1" stop-color="#F7DD43" stop-opacity="0"/>
</linearGradient>
<linearGradient id="paint1_linear_122_130" x1="51.5" y1="265" x2="51.5" y2="576.381" gradientUnits="userSpaceOnUse">
<stop stop-color="#F7DD43"/>
<stop offset="1" stop-color="#F7DD43" stop-opacity="0"/>
</linearGradient>
<linearGradient id="paint2_linear_122_130" x1="51.5" y1="265" x2="51.5" y2="576.381" gradientUnits="userSpaceOnUse">
<stop stop-color="#F7DD43"/>
<stop offset="1" stop-color="#F7DD43" stop-opacity="0"/>
</linearGradient>
<linearGradient id="paint3_linear_122_130" x1="51.5" y1="265" x2="51.5" y2="576.381" gradientUnits="userSpaceOnUse">
<stop stop-color="#F7DD43"/>
<stop offset="1" stop-color="#F7DD43" stop-opacity="0"/>
</linearGradient>
<linearGradient id="paint4_linear_122_130" x1="51.5" y1="265" x2="51.5" y2="576.381" gradientUnits="userSpaceOnUse">
<stop stop-color="#F7DD43"/>
<stop offset="1" stop-color="#F7DD43" stop-opacity="0"/>
</linearGradient>
<linearGradient id="paint5_linear_122_130" x1="51.5" y1="265" x2="51.5" y2="576.381" gradientUnits="userSpaceOnUse">
<stop stop-color="#F7DD43"/>
<stop offset="1" stop-color="#F7DD43" stop-opacity="0"/>
</linearGradient>
<linearGradient id="paint6_linear_122_130" x1="51.5" y1="265" x2="51.5" y2="576.381" gradientUnits="userSpaceOnUse">
<stop stop-color="#F7DD43"/>
<stop offset="1" stop-color="#F7DD43" stop-opacity="0"/>
</linearGradient>
<linearGradient id="paint7_linear_122_130" x1="51.5" y1="265" x2="51.5" y2="576.381" gradientUnits="userSpaceOnUse">
<stop stop-color="#F7DD43"/>
<stop offset="1" stop-color="#F7DD43" stop-opacity="0"/>
</linearGradient>
<linearGradient id="paint8_linear_122_130" x1="51.5" y1="265" x2="51.5" y2="576.381" gradientUnits="userSpaceOnUse">
<stop stop-color="#F7DD43"/>
<stop offset="1" stop-color="#F7DD43" stop-opacity="0"/>
</linearGradient>
<linearGradient id="paint9_linear_122_130" x1="51.5" y1="265" x2="51.5" y2="576.381" gradientUnits="userSpaceOnUse">
<stop stop-color="#F7DD43"/>
<stop offset="1" stop-color="#F7DD43" stop-opacity="0"/>
</linearGradient>
<linearGradient id="paint10_linear_122_130" x1="51.5" y1="265" x2="51.5" y2="576.381" gradientUnits="userSpaceOnUse">
<stop stop-color="#F7DD43"/>
<stop offset="1" stop-color="#F7DD43" stop-opacity="0"/>
</linearGradient>
<linearGradient id="paint11_linear_122_130" x1="51.5" y1="265" x2="51.5" y2="576.381" gradientUnits="userSpaceOnUse">
<stop stop-color="#F7DD43"/>
<stop offset="1" stop-color="#F7DD43" stop-opacity="0"/>
</linearGradient>
<linearGradient id="paint12_linear_122_130" x1="51.5" y1="265" x2="51.5" y2="576.381" gradientUnits="userSpaceOnUse">
<stop stop-color="#F7DD43"/>
<stop offset="1" stop-color="#F7DD43" stop-opacity="0"/>
</linearGradient>
<linearGradient id="paint13_linear_122_130" x1="51.5" y1="265" x2="51.5" y2="576.381" gradientUnits="userSpaceOnUse">
<stop stop-color="#F7DD43"/>
<stop offset="1" stop-color="#F7DD43" stop-opacity="0"/>
</linearGradient>
<linearGradient id="paint14_linear_122_130" x1="51.5" y1="265" x2="51.5" y2="576.381" gradientUnits="userSpaceOnUse">
<stop stop-color="#F7DD43"/>
<stop offset="1" stop-color="#F7DD43" stop-opacity="0"/>
</linearGradient>
<linearGradient id="paint15_linear_122_130" x1="51.5" y1="265" x2="51.5" y2="576.381" gradientUnits="userSpaceOnUse">
<stop stop-color="#F7DD43"/>
<stop offset="1" stop-color="#F7DD43" stop-opacity="0"/>
</linearGradient>
<linearGradient id="paint16_linear_122_130" x1="51.5" y1="265" x2="51.5" y2="576.381" gradientUnits="userSpaceOnUse">
<stop stop-color="#F7DD43"/>
<stop offset="1" stop-color="#F7DD43" stop-opacity="0"/>
</linearGradient>
<linearGradient id="paint17_linear_122_130" x1="51.5" y1="265" x2="51.5" y2="576.381" gradientUnits="userSpaceOnUse">
<stop stop-color="#F7DD43"/>
<stop offset="1" stop-color="#F7DD43" stop-opacity="0"/>
</linearGradient>
<linearGradient id="paint18_linear_122_130" x1="51.5" y1="265" x2="51.5" y2="576.381" gradientUnits="userSpaceOnUse">
<stop stop-color="#F7DD43"/>
<stop offset="1" stop-color="#F7DD43" stop-opacity="0"/>
</linearGradient>
<linearGradient id="paint19_linear_122_130" x1="51.5" y1="265" x2="51.5" y2="576.381" gradientUnits="userSpaceOnUse">
<stop stop-color="#F7DD43"/>
<stop offset="1" stop-color="#F7DD43" stop-opacity="0"/>
</linearGradient>
<linearGradient id="paint20_linear_122_130" x1="51.5" y1="265" x2="51.5" y2="576.381" gradientUnits="userSpaceOnUse">
<stop stop-color="#F7DD43"/>
<stop offset="1" stop-color="#F7DD43" stop-opacity="0"/>
</linearGradient>
<linearGradient id="paint21_linear_122_130" x1="51.5" y1="265" x2="51.5" y2="576.381" gradientUnits="userSpaceOnUse">
<stop stop-color="#F7DD43"/>
<stop offset="1" stop-color="#F7DD43" stop-opacity="0"/>
</linearGradient>
<linearGradient id="paint22_linear_122_130" x1="51.5" y1="265" x2="51.5" y2="576.381" gradientUnits="userSpaceOnUse">
<stop stop-color="#F7DD43"/>
<stop offset="1" stop-color="#F7DD43" stop-opacity="0"/>
</linearGradient>
<linearGradient id="paint23_linear_122_130" x1="51.5" y1="265" x2="51.5" y2="576.381" gradientUnits="userSpaceOnUse">
<stop stop-color="#F7DD43"/>
<stop offset="1" stop-color="#F7DD43" stop-opacity="0"/>
</linearGradient>
<linearGradient id="paint24_linear_122_130" x1="51.5" y1="265" x2="51.5" y2="576.381" gradientUnits="userSpaceOnUse">
<stop stop-color="#F7DD43"/>
<stop offset="1" stop-color="#F7DD43" stop-opacity="0"/>
</linearGradient>
<linearGradient id="paint25_linear_122_130" x1="51.5" y1="265" x2="51.5" y2="576.381" gradientUnits="userSpaceOnUse">
<stop stop-color="#F7DD43"/>
<stop offset="1" stop-color="#F7DD43" stop-opacity="0"/>
</linearGradient>
<linearGradient id="paint26_linear_122_130" x1="51.5" y1="265" x2="51.5" y2="576.381" gradientUnits="userSpaceOnUse">
<stop stop-color="#F7DD43"/>
<stop offset="1" stop-color="#F7DD43" stop-opacity="0"/>
</linearGradient>
<linearGradient id="paint27_linear_122_130" x1="51.5" y1="265" x2="51.5" y2="576.381" gradientUnits="userSpaceOnUse">
<stop stop-color="#F7DD43"/>
<stop offset="1" stop-color="#F7DD43" stop-opacity="0"/>
</linearGradient>
<linearGradient id="paint28_linear_122_130" x1="51.5" y1="265" x2="51.5" y2="576.381" gradientUnits="userSpaceOnUse">
<stop stop-color="#F7DD43"/>
<stop offset="1" stop-color="#F7DD43" stop-opacity="0"/>
</linearGradient>
<linearGradient id="paint29_linear_122_130" x1="51.5" y1="265" x2="51.5" y2="576.381" gradientUnits="userSpaceOnUse">
<stop stop-color="#F7DD43"/>
<stop offset="1" stop-color="#F7DD43" stop-opacity="0"/>
</linearGradient>
<linearGradient id="paint30_linear_122_130" x1="51.5" y1="265" x2="51.5" y2="576.381" gradientUnits="userSpaceOnUse">
<stop stop-color="#F7DD43"/>
<stop offset="1" stop-color="#F7DD43" stop-opacity="0"/>
</linearGradient>
<linearGradient id="paint31_linear_122_130" x1="51.5" y1="265" x2="51.5" y2="576.381" gradientUnits="userSpaceOnUse">
<stop stop-color="#F7DD43"/>
<stop offset="1" stop-color="#F7DD43" stop-opacity="0"/>
</linearGradient>
<linearGradient id="paint32_linear_122_130" x1="51.5" y1="265" x2="51.5" y2="576.381" gradientUnits="userSpaceOnUse">
<stop stop-color="#F7DD43"/>
<stop offset="1" stop-color="#F7DD43" stop-opacity="0"/>
</linearGradient>
<linearGradient id="paint33_linear_122_130" x1="51.5" y1="265" x2="51.5" y2="576.381" gradientUnits="userSpaceOnUse">
<stop stop-color="#F7DD43"/>
<stop offset="1" stop-color="#F7DD43" stop-opacity="0"/>
</linearGradient>
<linearGradient id="paint34_linear_122_130" x1="51.5" y1="265" x2="51.5" y2="576.381" gradientUnits="userSpaceOnUse">
<stop stop-color="#F7DD43"/>
<stop offset="1" stop-color="#F7DD43" stop-opacity="0"/>
</linearGradient>
<linearGradient id="paint35_linear_122_130" x1="51.5" y1="265" x2="51.5" y2="576.381" gradientUnits="userSpaceOnUse">
<stop stop-color="#F7DD43"/>
<stop offset="1" stop-color="#F7DD43" stop-opacity="0"/>
</linearGradient>
<linearGradient id="paint36_linear_122_130" x1="51.5" y1="265" x2="51.5" y2="576.381" gradientUnits="userSpaceOnUse">
<stop stop-color="#F7DD43"/>
<stop offset="1" stop-color="#F7DD43" stop-opacity="0"/>
</linearGradient>
<linearGradient id="paint37_linear_122_130" x1="51.5" y1="265" x2="51.5" y2="576.381" gradientUnits="userSpaceOnUse">
<stop stop-color="#F7DD43"/>
<stop offset="1" stop-color="#F7DD43" stop-opacity="0"/>
</linearGradient>
<linearGradient id="paint38_linear_122_130" x1="51.5" y1="265" x2="51.5" y2="576.381" gradientUnits="userSpaceOnUse">
<stop stop-color="#F7DD43"/>
<stop offset="1" stop-color="#F7DD43" stop-opacity="0"/>
</linearGradient>
<linearGradient id="paint39_linear_122_130" x1="51.5" y1="265" x2="51.5" y2="576.381" gradientUnits="userSpaceOnUse">
<stop stop-color="#F7DD43"/>
<stop offset="1" stop-color="#F7DD43" stop-opacity="0"/>
</linearGradient>
<linearGradient id="paint40_linear_122_130" x1="51.5" y1="265" x2="51.5" y2="576.381" gradientUnits="userSpaceOnUse">
<stop stop-color="#F7DD43"/>
<stop offset="1" stop-color="#F7DD43" stop-opacity="0"/>
</linearGradient>
<linearGradient id="paint41_linear_122_130" x1="51.5" y1="265" x2="51.5" y2="576.381" gradientUnits="userSpaceOnUse">
<stop stop-color="#F7DD43"/>
<stop offset="1" stop-color="#F7DD43" stop-opacity="0"/>
</linearGradient>
<linearGradient id="paint42_linear_122_130" x1="51.5" y1="265" x2="51.5" y2="576.381" gradientUnits="userSpaceOnUse">
<stop stop-color="#F7DD43"/>
<stop offset="1" stop-color="#F7DD43" stop-opacity="0"/>
</linearGradient>
<linearGradient id="paint43_linear_122_130" x1="51.5" y1="265" x2="51.5" y2="576.381" gradientUnits="userSpaceOnUse">
<stop stop-color="#F7DD43"/>
<stop offset="1" stop-color="#F7DD43" stop-opacity="0"/>
</linearGradient>
<linearGradient id="paint44_linear_122_130" x1="51.5" y1="265" x2="51.5" y2="576.381" gradientUnits="userSpaceOnUse">
<stop stop-color="#F7DD43"/>
<stop offset="1" stop-color="#F7DD43" stop-opacity="0"/>
</linearGradient>
<linearGradient id="paint45_linear_122_130" x1="51.5" y1="265" x2="51.5" y2="576.381" gradientUnits="userSpaceOnUse">
<stop stop-color="#F7DD43"/>
<stop offset="1" stop-color="#F7DD43" stop-opacity="0"/>
</linearGradient>
<linearGradient id="paint46_linear_122_130" x1="51.5" y1="265" x2="51.5" y2="576.381" gradientUnits="userSpaceOnUse">
<stop stop-color="#F7DD43"/>
<stop offset="1" stop-color="#F7DD43" stop-opacity="0"/>
</linearGradient>
<linearGradient id="paint47_linear_122_130" x1="937.5" y1="-35" x2="937.5" y2="263.818" gradientUnits="userSpaceOnUse">
<stop stop-color="#F7DD43"/>
<stop offset="1" stop-color="#F7DD43" stop-opacity="0"/>
</linearGradient>
<linearGradient id="paint48_linear_122_130" x1="937.5" y1="-35" x2="937.5" y2="263.818" gradientUnits="userSpaceOnUse">
<stop stop-color="#F7DD43"/>
<stop offset="1" stop-color="#F7DD43" stop-opacity="0"/>
</linearGradient>
<linearGradient id="paint49_linear_122_130" x1="937.5" y1="-35" x2="937.5" y2="263.818" gradientUnits="userSpaceOnUse">
<stop stop-color="#F7DD43"/>
<stop offset="1" stop-color="#F7DD43" stop-opacity="0"/>
</linearGradient>
<linearGradient id="paint50_linear_122_130" x1="937.5" y1="-35" x2="937.5" y2="263.818" gradientUnits="userSpaceOnUse">
<stop stop-color="#F7DD43"/>
<stop offset="1" stop-color="#F7DD43" stop-opacity="0"/>
</linearGradient>
<linearGradient id="paint51_linear_122_130" x1="937.5" y1="-35" x2="937.5" y2="263.818" gradientUnits="userSpaceOnUse">
<stop stop-color="#F7DD43"/>
<stop offset="1" stop-color="#F7DD43" stop-opacity="0"/>
</linearGradient>
<linearGradient id="paint52_linear_122_130" x1="937.5" y1="-35" x2="937.5" y2="263.818" gradientUnits="userSpaceOnUse">
<stop stop-color="#F7DD43"/>
<stop offset="1" stop-color="#F7DD43" stop-opacity="0"/>
</linearGradient>
<linearGradient id="paint53_linear_122_130" x1="937.5" y1="-35" x2="937.5" y2="263.818" gradientUnits="userSpaceOnUse">
<stop stop-color="#F7DD43"/>
<stop offset="1" stop-color="#F7DD43" stop-opacity="0"/>
</linearGradient>
<linearGradient id="paint54_linear_122_130" x1="937.5" y1="-35" x2="937.5" y2="263.818" gradientUnits="userSpaceOnUse">
<stop stop-color="#F7DD43"/>
<stop offset="1" stop-color="#F7DD43" stop-opacity="0"/>
</linearGradient>
<linearGradient id="paint55_linear_122_130" x1="937.5" y1="-35" x2="937.5" y2="263.818" gradientUnits="userSpaceOnUse">
<stop stop-color="#F7DD43"/>
<stop offset="1" stop-color="#F7DD43" stop-opacity="0"/>
</linearGradient>
<linearGradient id="paint56_linear_122_130" x1="937.5" y1="-35" x2="937.5" y2="263.818" gradientUnits="userSpaceOnUse">
<stop stop-color="#F7DD43"/>
<stop offset="1" stop-color="#F7DD43" stop-opacity="0"/>
</linearGradient>
<linearGradient id="paint57_linear_122_130" x1="937.5" y1="-35" x2="937.5" y2="263.818" gradientUnits="userSpaceOnUse">
<stop stop-color="#F7DD43"/>
<stop offset="1" stop-color="#F7DD43" stop-opacity="0"/>
</linearGradient>
<linearGradient id="paint58_linear_122_130" x1="937.5" y1="-35" x2="937.5" y2="263.818" gradientUnits="userSpaceOnUse">
<stop stop-color="#F7DD43"/>
<stop offset="1" stop-color="#F7DD43" stop-opacity="0"/>
</linearGradient>
<linearGradient id="paint59_linear_122_130" x1="937.5" y1="-35" x2="937.5" y2="263.818" gradientUnits="userSpaceOnUse">
<stop stop-color="#F7DD43"/>
<stop offset="1" stop-color="#F7DD43" stop-opacity="0"/>
</linearGradient>
<linearGradient id="paint60_linear_122_130" x1="937.5" y1="-35" x2="937.5" y2="263.818" gradientUnits="userSpaceOnUse">
<stop stop-color="#F7DD43"/>
<stop offset="1" stop-color="#F7DD43" stop-opacity="0"/>
</linearGradient>
<linearGradient id="paint61_linear_122_130" x1="937.5" y1="-35" x2="937.5" y2="263.818" gradientUnits="userSpaceOnUse">
<stop stop-color="#F7DD43"/>
<stop offset="1" stop-color="#F7DD43" stop-opacity="0"/>
</linearGradient>
<linearGradient id="paint62_linear_122_130" x1="937.5" y1="-35" x2="937.5" y2="263.818" gradientUnits="userSpaceOnUse">
<stop stop-color="#F7DD43"/>
<stop offset="1" stop-color="#F7DD43" stop-opacity="0"/>
</linearGradient>
<linearGradient id="paint63_linear_122_130" x1="937.5" y1="-35" x2="937.5" y2="263.818" gradientUnits="userSpaceOnUse">
<stop stop-color="#F7DD43"/>
<stop offset="1" stop-color="#F7DD43" stop-opacity="0"/>
</linearGradient>
<linearGradient id="paint64_linear_122_130" x1="937.5" y1="-35" x2="937.5" y2="263.818" gradientUnits="userSpaceOnUse">
<stop stop-color="#F7DD43"/>
<stop offset="1" stop-color="#F7DD43" stop-opacity="0"/>
</linearGradient>
<linearGradient id="paint65_linear_122_130" x1="937.5" y1="-35" x2="937.5" y2="263.818" gradientUnits="userSpaceOnUse">
<stop stop-color="#F7DD43"/>
<stop offset="1" stop-color="#F7DD43" stop-opacity="0"/>
</linearGradient>
<linearGradient id="paint66_linear_122_130" x1="937.5" y1="-35" x2="937.5" y2="263.818" gradientUnits="userSpaceOnUse">
<stop stop-color="#F7DD43"/>
<stop offset="1" stop-color="#F7DD43" stop-opacity="0"/>
</linearGradient>
<linearGradient id="paint67_linear_122_130" x1="937.5" y1="-35" x2="937.5" y2="263.818" gradientUnits="userSpaceOnUse">
<stop stop-color="#F7DD43"/>
<stop offset="1" stop-color="#F7DD43" stop-opacity="0"/>
</linearGradient>
<linearGradient id="paint68_linear_122_130" x1="937.5" y1="-35" x2="937.5" y2="263.818" gradientUnits="userSpaceOnUse">
<stop stop-color="#F7DD43"/>
<stop offset="1" stop-color="#F7DD43" stop-opacity="0"/>
</linearGradient>
<linearGradient id="paint69_linear_122_130" x1="937.5" y1="-35" x2="937.5" y2="263.818" gradientUnits="userSpaceOnUse">
<stop stop-color="#F7DD43"/>
<stop offset="1" stop-color="#F7DD43" stop-opacity="0"/>
</linearGradient>
<linearGradient id="paint70_linear_122_130" x1="937.5" y1="-35" x2="937.5" y2="263.818" gradientUnits="userSpaceOnUse">
<stop stop-color="#F7DD43"/>
<stop offset="1" stop-color="#F7DD43" stop-opacity="0"/>
</linearGradient>
<linearGradient id="paint71_linear_122_130" x1="937.5" y1="-35" x2="937.5" y2="263.818" gradientUnits="userSpaceOnUse">
<stop stop-color="#F7DD43"/>
<stop offset="1" stop-color="#F7DD43" stop-opacity="0"/>
</linearGradient>
<linearGradient id="paint72_linear_122_130" x1="937.5" y1="-35" x2="937.5" y2="263.818" gradientUnits="userSpaceOnUse">
<stop stop-color="#F7DD43"/>
<stop offset="1" stop-color="#F7DD43" stop-opacity="0"/>
</linearGradient>
<linearGradient id="paint73_linear_122_130" x1="937.5" y1="-35" x2="937.5" y2="263.818" gradientUnits="userSpaceOnUse">
<stop stop-color="#F7DD43"/>
<stop offset="1" stop-color="#F7DD43" stop-opacity="0"/>
</linearGradient>
<linearGradient id="paint74_linear_122_130" x1="937.5" y1="-35" x2="937.5" y2="263.818" gradientUnits="userSpaceOnUse">
<stop stop-color="#F7DD43"/>
<stop offset="1" stop-color="#F7DD43" stop-opacity="0"/>
</linearGradient>
<linearGradient id="paint75_linear_122_130" x1="937.5" y1="-35" x2="937.5" y2="263.818" gradientUnits="userSpaceOnUse">
<stop stop-color="#F7DD43"/>
<stop offset="1" stop-color="#F7DD43" stop-opacity="0"/>
</linearGradient>
<linearGradient id="paint76_linear_122_130" x1="937.5" y1="-35" x2="937.5" y2="263.818" gradientUnits="userSpaceOnUse">
<stop stop-color="#F7DD43"/>
<stop offset="1" stop-color="#F7DD43" stop-opacity="0"/>
</linearGradient>
<linearGradient id="paint77_linear_122_130" x1="937.5" y1="-35" x2="937.5" y2="263.818" gradientUnits="userSpaceOnUse">
<stop stop-color="#F7DD43"/>
<stop offset="1" stop-color="#F7DD43" stop-opacity="0"/>
</linearGradient>
<linearGradient id="paint78_linear_122_130" x1="937.5" y1="-35" x2="937.5" y2="263.818" gradientUnits="userSpaceOnUse">
<stop stop-color="#F7DD43"/>
<stop offset="1" stop-color="#F7DD43" stop-opacity="0"/>
</linearGradient>
<linearGradient id="paint79_linear_122_130" x1="937.5" y1="-35" x2="937.5" y2="263.818" gradientUnits="userSpaceOnUse">
<stop stop-color="#F7DD43"/>
<stop offset="1" stop-color="#F7DD43" stop-opacity="0"/>
</linearGradient>
<linearGradient id="paint80_linear_122_130" x1="937.5" y1="-35" x2="937.5" y2="263.818" gradientUnits="userSpaceOnUse">
<stop stop-color="#F7DD43"/>
<stop offset="1" stop-color="#F7DD43" stop-opacity="0"/>
</linearGradient>
<linearGradient id="paint81_linear_122_130" x1="937.5" y1="-35" x2="937.5" y2="263.818" gradientUnits="userSpaceOnUse">
<stop stop-color="#F7DD43"/>
<stop offset="1" stop-color="#F7DD43" stop-opacity="0"/>
</linearGradient>
<linearGradient id="paint82_linear_122_130" x1="937.5" y1="-35" x2="937.5" y2="263.818" gradientUnits="userSpaceOnUse">
<stop stop-color="#F7DD43"/>
<stop offset="1" stop-color="#F7DD43" stop-opacity="0"/>
</linearGradient>
<linearGradient id="paint83_linear_122_130" x1="937.5" y1="-35" x2="937.5" y2="263.818" gradientUnits="userSpaceOnUse">
<stop stop-color="#F7DD43"/>
<stop offset="1" stop-color="#F7DD43" stop-opacity="0"/>
</linearGradient>
<linearGradient id="paint84_linear_122_130" x1="937.5" y1="-35" x2="937.5" y2="263.818" gradientUnits="userSpaceOnUse">
<stop stop-color="#F7DD43"/>
<stop offset="1" stop-color="#F7DD43" stop-opacity="0"/>
</linearGradient>
<linearGradient id="paint85_linear_122_130" x1="937.5" y1="-35" x2="937.5" y2="263.818" gradientUnits="userSpaceOnUse">
<stop stop-color="#F7DD43"/>
<stop offset="1" stop-color="#F7DD43" stop-opacity="0"/>
</linearGradient>
<linearGradient id="paint86_linear_122_130" x1="937.5" y1="-35" x2="937.5" y2="263.818" gradientUnits="userSpaceOnUse">
<stop stop-color="#F7DD43"/>
<stop offset="1" stop-color="#F7DD43" stop-opacity="0"/>
</linearGradient>
<linearGradient id="paint87_linear_122_130" x1="937.5" y1="-35" x2="937.5" y2="263.818" gradientUnits="userSpaceOnUse">
<stop stop-color="#F7DD43"/>
<stop offset="1" stop-color="#F7DD43" stop-opacity="0"/>
</linearGradient>
<linearGradient id="paint88_linear_122_130" x1="937.5" y1="-35" x2="937.5" y2="263.818" gradientUnits="userSpaceOnUse">
<stop stop-color="#F7DD43"/>
<stop offset="1" stop-color="#F7DD43" stop-opacity="0"/>
</linearGradient>
<linearGradient id="paint89_linear_122_130" x1="937.5" y1="-35" x2="937.5" y2="263.818" gradientUnits="userSpaceOnUse">
<stop stop-color="#F7DD43"/>
<stop offset="1" stop-color="#F7DD43" stop-opacity="0"/>
</linearGradient>
<linearGradient id="paint90_linear_122_130" x1="937.5" y1="-35" x2="937.5" y2="263.818" gradientUnits="userSpaceOnUse">
<stop stop-color="#F7DD43"/>
<stop offset="1" stop-color="#F7DD43" stop-opacity="0"/>
</linearGradient>
<linearGradient id="paint91_linear_122_130" x1="937.5" y1="-35" x2="937.5" y2="263.818" gradientUnits="userSpaceOnUse">
<stop stop-color="#F7DD43"/>
<stop offset="1" stop-color="#F7DD43" stop-opacity="0"/>
</linearGradient>
<linearGradient id="paint92_linear_122_130" x1="937.5" y1="-35" x2="937.5" y2="263.818" gradientUnits="userSpaceOnUse">
<stop stop-color="#F7DD43"/>
<stop offset="1" stop-color="#F7DD43" stop-opacity="0"/>
</linearGradient>
<linearGradient id="paint93_linear_122_130" x1="937.5" y1="-35" x2="937.5" y2="263.818" gradientUnits="userSpaceOnUse">
<stop stop-color="#F7DD43"/>
<stop offset="1" stop-color="#F7DD43" stop-opacity="0"/>
</linearGradient>
<clipPath id="clip0_122_130">
<rect width="1024" height="753" fill="white"/>
</clipPath>
</defs>
</svg>
